<?xml version="1.0" encoding="utf-8"?>
<!-- Generator: Adobe Illustrator 21.0.0, SVG Export Plug-In . SVG Version: 6.00 Build 0)  -->
<svg version="1.1" id="Layer_1" xmlns="http://www.w3.org/2000/svg" xmlns:xlink="http://www.w3.org/1999/xlink" x="0px" y="0px"
	 viewBox="0 0 1440 900" style="enable-background:new 0 0 1440 900;" xml:space="preserve">
<style type="text/css">
	.st0{fill:#195700;}
	.st1{fill:#2A6B0B;}
	.st2{fill:#3CB700;}
	.st3{fill:#053B00;}
	.st4{fill:#134100;}
</style>
<rect id="bg" class="st0" width="1440" height="900"/>
<g id="sock">
	<g>
		<g>
			<path class="st1" d="M777,463.9c28.1-11.3,49.8,38.3,23.2,52.7c-26.6,14.4-58.4,30.3-79.4,39c-2.1,0.9-4.1,1.7-6.1,2.5l-0.1-0.2
				c0,0-4.8-57.7-71.4-33.8c-0.9-2.8-1.7-5.8-2.5-9c-5.8-22.4-15.6-60.4-24.7-95.3c15.3,0,46.5-7,59.1-11.9
				c7.8,38.5,18.2,77.7,29.2,82.5C718.8,496.9,752.6,473.7,777,463.9z"/>
		</g>
		<path class="st2" d="M714.7,558c0,0-4.8-57.7-71.4-33.8c15.8,50.8,41.1,46.1,71.4,34L714.7,558z"/>
		<path class="st2" d="M664.3,325.9c-2.9-5.6-69.5,10.1-73,12.6c-3.5,2.4,11.1,71.9,16.3,79.5c1,1.4,4.1,2,8.5,2
			c15.3,0,46.5-7,59.1-11.9c3.1-1.2,5.1-2.3,5.5-3.1C682.7,400.1,667.8,332.5,664.3,325.9z"/>
	</g>
	<g>
		<g>
			<path class="st3" d="M683.3,569.3c-5.2,0-10.4-0.9-15.2-3.2c-11.9-5.7-21-19.1-27.8-40.9c-0.9-2.9-1.8-5.9-2.6-9.1
				c-5.7-22.1-15.2-58.8-24.7-95.3l6.1-1.6c9.5,36.4,19,73.2,24.7,95.3c0.8,3.1,1.6,6,2.5,8.8c6.2,20.1,14.2,32.2,24.5,37.1
				c11.3,5.4,25.3,1.9,42.8-5.1c2-0.8,4-1.6,6.1-2.5c19.3-8,50.4-23.3,79.1-38.9c8.7-4.7,14.6-16.9,7.2-32.8
				c-5-10.6-15.5-19.1-27.7-14.2c-7.3,2.9-15.7,7.2-23.8,11.3c-20.5,10.4-39.9,20.3-51.3,15.3c-6.1-2.7-11.6-12.4-17.6-30.5
				c-4.4-13.6-9-31.9-13.5-54.2l6.2-1.3c13.6,67.5,23.7,78.6,27.4,80.2c8.6,3.8,28.4-6.2,45.9-15.1c8.2-4.2,16.8-8.5,24.3-11.5
				c7.3-2.9,14.8-2.4,21.6,1.4c5.9,3.3,10.9,9,14.2,16c6.6,14.1,5.4,32.8-9.9,41c-28.9,15.7-60.2,31-79.7,39.1
				c-2.1,0.9-4.1,1.7-6.1,2.5C705.6,565.2,694.2,569.3,683.3,569.3z"/>
		</g>
		<g>
			<path class="st3" d="M711.5,558.3c0-0.2-2-20.9-17.8-31c-11.8-7.6-28.4-7.6-49.4-0.1l-2.1-6c22.9-8.2,41.4-8,55,0.8
				c18.4,11.9,20.5,34.8,20.6,35.8L711.5,558.3l3.2-0.3L711.5,558.3z"/>
		</g>
		<g>
			<path class="st3" d="M616.2,423.1c0,0-0.1,0-0.1,0c-6.1,0-9.5-1.1-11.1-3.4c-5.4-7.8-19-71.3-17.2-80.9c0.1-0.5,0.4-2,1.7-3
				c2.9-2,24.3-7,34.2-9c14.7-3.1,33.5-6.4,39.9-4.9c1.7,0.4,2.9,1.3,3.6,2.5c2.4,4.6,8,28.8,10.6,41c7.8,36.4,6.4,39.7,5.9,40.8
				c-0.6,1.5-2.1,2.8-7.2,4.8C663.9,415.8,632.5,423.1,616.2,423.1z M610.1,416c0.3,0.2,1.6,0.8,6,0.8c0,0,0.1,0,0.1,0
				c15.2,0,45.8-7.1,57.9-11.7l0,0c2.1-0.8,3.1-1.3,3.6-1.7c0.1-3.5-2-17-6.5-37.8c-4.2-19.5-7.9-33.8-9.4-37.6
				c-2.5-0.5-12.1-0.1-34.8,4.6c-15.4,3.2-29.2,6.8-33.1,8.2C593.2,350.6,605.8,409.3,610.1,416z M610.2,416.1
				C610.2,416.1,610.2,416.1,610.2,416.1C610.2,416.1,610.2,416.1,610.2,416.1z M677.6,404L677.6,404L677.6,404z"/>
		</g>
	</g>
	<g>
		<g>
			<path class="st3" d="M683.3,569.3c-5.2,0-10.4-0.9-15.2-3.2c-11.9-5.7-21-19.1-27.8-40.9c-0.9-2.9-1.8-5.9-2.6-9.1
				c-5.7-22.1-15.2-58.8-24.7-95.3l6.1-1.6c9.5,36.4,19,73.2,24.7,95.3c0.8,3.1,1.6,6,2.5,8.8c6.2,20.1,14.2,32.2,24.5,37.1
				c11.3,5.4,25.3,1.9,42.8-5.1c2-0.8,4-1.6,6.1-2.5c19.3-8,50.4-23.3,79.1-38.9c8.7-4.7,14.6-16.9,7.2-32.8
				c-5-10.6-15.5-19.1-27.7-14.2c-7.3,2.9-15.7,7.2-23.8,11.3c-20.5,10.4-39.9,20.3-51.3,15.3c-6.1-2.7-11.6-12.4-17.6-30.5
				c-4.4-13.6-9-31.9-13.5-54.2l6.2-1.3c13.6,67.5,23.7,78.6,27.4,80.2c8.6,3.8,28.4-6.2,45.9-15.1c8.2-4.2,16.8-8.5,24.3-11.5
				c7.3-2.9,14.8-2.4,21.6,1.4c5.9,3.3,10.9,9,14.2,16c6.6,14.1,5.4,32.8-9.9,41c-28.9,15.7-60.2,31-79.7,39.1
				c-2.1,0.9-4.1,1.7-6.1,2.5C705.6,565.2,694.2,569.3,683.3,569.3z"/>
		</g>
		<g>
			<path class="st3" d="M711.5,558.3c0-0.2-2-20.9-17.8-31c-11.8-7.6-28.4-7.6-49.4-0.1l-2.1-6c22.9-8.2,41.4-8,55,0.8
				c18.4,11.9,20.5,34.8,20.6,35.8L711.5,558.3l3.2-0.3L711.5,558.3z"/>
		</g>
		<g>
			<path class="st3" d="M616.2,423.1c0,0-0.1,0-0.1,0c-6.1,0-9.5-1.1-11.1-3.4c-5.4-7.8-19-71.3-17.2-80.9c0.1-0.5,0.4-2,1.7-3
				c2.9-2,24.3-7,34.2-9c14.7-3.1,33.5-6.4,39.9-4.9c1.7,0.4,2.9,1.3,3.6,2.5c2.4,4.6,8,28.8,10.6,41c7.8,36.4,6.4,39.7,5.9,40.8
				c-0.6,1.5-2.1,2.8-7.2,4.8C663.9,415.8,632.5,423.1,616.2,423.1z M610.1,416c0.3,0.2,1.6,0.8,6,0.8c0,0,0.1,0,0.1,0
				c15.2,0,45.8-7.1,57.9-11.7l0,0c2.1-0.8,3.1-1.3,3.6-1.7c0.1-3.5-2-17-6.5-37.8c-4.2-19.5-7.9-33.8-9.4-37.6
				c-2.5-0.5-12.1-0.1-34.8,4.6c-15.4,3.2-29.2,6.8-33.1,8.2C593.2,350.6,605.8,409.3,610.1,416z M610.2,416.1
				C610.2,416.1,610.2,416.1,610.2,416.1C610.2,416.1,610.2,416.1,610.2,416.1z M677.6,404L677.6,404L677.6,404z"/>
		</g>
	</g>
</g>
<g id="dark-zaps">
	<polygon class="st3" points="853.6,426.6 981.5,378.3 976.8,420.3 1098.9,379.6 960.4,469.7 957.1,428.3 	"/>
	<polygon class="st3" points="293.7,384.3 430.3,380.1 412.3,418.4 541,419.5 380.7,459.8 391,419.5 	"/>
	<polygon class="st3" points="604.7,122.4 640,200.2 613.6,199 643.9,273.4 582.1,190.8 607.9,187 	"/>
	<polygon class="st3" points="1033,278.3 959.8,322.4 958,296 887.5,334.8 962.4,263.8 969.2,288.9 	"/>
	<polygon class="st3" points="815.7,726.8 765.2,657.9 791.3,653.7 746.4,587 823.8,655.3 799.4,664.2 	"/>
	<polygon id="zap_9_" class="st3" points="545.7,497.4 472.6,541.5 470.7,515.1 400.3,553.9 475.2,482.9 481.9,508 	"/>
	<polygon id="zap_8_" class="st3" points="887.5,111.2 854.6,190 837.6,169.8 803.7,242.7 822.1,141.2 842.4,157.5 	"/>
	<polygon id="zap_7_" class="st3" points="447.9,131.8 533.8,213.1 499.3,225.4 577.2,305.1 454.6,231.3 485.7,213 	"/>
</g>
<g id="light-zaps">
	<polygon id="zap_6_" class="st2" points="746.5,372.3 806.5,276.4 824.5,306.4 884.5,218.4 838.5,347.2 815.5,321.5 	"/>
	<polygon id="zap_5_" class="st2" points="429.9,639.4 507.4,557 519.2,590 595.2,515.3 525,632.7 507.4,603 	"/>
	<polygon id="zap_4_" class="st2" points="417.3,299.3 483.4,324.2 467.3,338.9 528.6,364.8 444.1,352.5 456.9,335.3 	"/>
	<polygon id="zap_3_" class="st2" points="766,177 749,245.5 732.5,231.2 714,295.1 716.2,209.7 734.9,220.5 	"/>
	<polygon id="zap_2_" class="st2" points="647.2,604.9 630.2,673.5 613.7,659.2 595.2,723 597.4,637.7 616.1,648.4 	"/>
	<polygon id="zap_1_" class="st2" points="912.3,645.7 850.8,611 869,598.9 812.3,564 894,589 878.7,604.1 	"/>
	<polygon id="zap" class="st2" points="845.6,508.5 943.5,505.8 930.5,533.2 1022.7,534.3 907.8,562.8 915.3,533.9 	"/>
</g>
<ellipse id="shadow" class="st4" cx="718" cy="799.1" rx="67.2" ry="9"/>
</svg>
